<svg xmlns="http://www.w3.org/2000/svg" viewBox="0 0 408.84 408.71"><defs><style>.cls-1{fill:#12639f;}</style></defs><g id="Layer_2" data-name="Layer 2"><g id="Layer_1-2" data-name="Layer 1"><g id="Layer_2-2" data-name="Layer 2"><g id="Layer_1-2-2" data-name="Layer 1-2"><path class="cls-1" d="M240.37,408.71H8.82c-7.34-4.29-9.93-8.87-8.4-14.84,1.66-6.43,6.14-9.12,15.25-9.12h9.12V16.08c0-1.73-.07-3.47.1-5.18A11.93,11.93,0,0,1,37.81.05a10.74,10.74,0,0,1,1.95.33A44.12,44.12,0,0,1,44.67,2l184,69c9.91,3.71,11.74,6.34,11.75,16.79ZM72.73,384.47h47.68V313c-12.53,0-24.87-.25-37.2.11-5.9.17-10.37,5.15-10.42,11.19C72.63,344.25,72.73,364.2,72.73,384.47Zm72.11-71.54v71.62h47.51c0-20.52.18-40.85-.11-61.16-.08-5.9-5.17-10.3-11.21-10.4-12-.2-23.93-.06-36.19-.06ZM96.57,193.12c4,0,8,.09,12,0,6.94-.2,12-5.15,12-11.77.1-6.8-4.93-12-12.09-12.11-8-.14-15.94-.16-23.91,0a11.73,11.73,0,0,0-11.85,11.61v.34c0,6.63,5,11.69,11.9,11.91C88.6,193.22,92.59,193.11,96.57,193.12Zm71.92,0c4,0,8,.1,11.95,0,6.93-.2,11.92-5.19,12-11.82a11.72,11.72,0,0,0-11.43-12h-.33q-12.12-.28-24.3,0a11.71,11.71,0,0,0-11.79,11.63v.37c0,6.63,5,11.64,12,11.85,3.93.06,7.91,0,11.9,0ZM96.43,241c4.11,0,8.24.11,12.35,0a11.79,11.79,0,0,0,11.79-11.79V229a11.64,11.64,0,0,0-11.44-11.84H109c-8.22-.22-16.47-.22-24.7,0a11.67,11.67,0,0,0-11.6,11.74v0a11.82,11.82,0,0,0,11.62,12h.13C88.45,241.13,92.44,241,96.43,241Zm72,0c4.12,0,8.24.13,12.35,0a11.91,11.91,0,0,0,0-23.82c-8.1-.21-16.2-.19-24.3,0a11.72,11.72,0,0,0-11.9,11.54V229c0,6.63,5,11.72,11.86,11.94,4,.18,8,.06,11.95.06ZM96.67,288.93c4,0,8,.1,12,0,6.91-.21,11.91-5.23,12-11.85a11.71,11.71,0,0,0-11.41-12h-.38q-12.14-.27-24.3,0a11.73,11.73,0,0,0-11.76,11.7v.3c.07,6.63,5.06,11.62,12,11.83C88.69,289,92.68,288.93,96.67,288.93Zm71.73,0c4.12,0,8.24.12,12.35,0a11.92,11.92,0,0,0,0-23.83q-12.13-.3-24.3,0a11.73,11.73,0,0,0-11.87,11.57V277c0,6.64,5,11.72,11.87,11.94,4,.06,8,0,12,0ZM96.67,145.21c4,0,8,.1,12,0,6.91-.22,11.91-5.24,12-11.86a11.75,11.75,0,0,0-11.5-12h-.29q-12.15-.27-24.3,0a11.74,11.74,0,0,0-11.76,11.72v.28c.07,6.63,5.07,11.61,12,11.82C88.7,145.3,92.69,145.21,96.67,145.21Zm71.61,0c4.12,0,8.24.12,12.35,0a11.92,11.92,0,0,0,.25-23.83q-12.33-.33-24.7,0a11.91,11.91,0,0,0,.15,23.82h0c4,.12,8,0,11.95,0Z"/><path class="cls-1" d="M264.32,408.71v-276c1.81.53,3.2.9,4.57,1.35l104.63,35c8.14,2.73,10.56,6.09,10.56,14.68v201c3.12,0,6.12.22,9.09,0,7.3-.63,12.62,2,15.67,8.83v6.38a17.59,17.59,0,0,1-8.79,8.79Zm24-24.25h24V337.1h24v47.44h23.36a3.43,3.43,0,0,0,.35-.92c0-19.69.13-39.38,0-59.08-.06-6.7-5-11.52-11.79-11.58q-24.15-.21-48.3,0c-6.58.07-11.52,4.84-11.58,11.35-.16,20-.05,39.91-.05,60.15Zm36-143.43c7.7,0,15.41.06,23.12,0,7.5-.07,12.67-5,12.67-12s-5.11-11.89-12.69-11.92q-23.13-.12-46.25,0c-7.6,0-12.76,4.85-12.87,11.77S293.45,241,301.18,241h23.13Zm-.25,47.91h22.72c8.08,0,13.41-4.92,13.32-12.12S354.79,265,346.87,265q-22.71-.06-45.45,0c-7.87,0-13.09,4.85-13.12,11.92s5.22,11.95,13,12c7.61.08,15.18,0,22.76,0Z"/></g></g></g></g></svg>