<svg xmlns="http://www.w3.org/2000/svg" viewBox="0 0 479.04 471.32"><defs><style>.cls-1{fill:#12639f;}.cls-2{fill:#508fb5;}</style></defs><g id="Layer_2" data-name="Layer 2"><g id="Layer_1-2" data-name="Layer 1"><path class="cls-1" d="M391.2,454.94l13.26.16,68.93-.06,5.65.38v15.9c-15.42-.05-30.84-.16-46.27-.16H.27V454.79H16.63a18.37,18.37,0,0,0,2.73.41q28.19,0,56.36,0a19.4,19.4,0,0,0,3.17-.52l24.92.24c1.24.09,2.48.24,3.71.24H307.93c1.24,0,2.47-.15,3.71-.23l31.68,0,16.09-.11,13.77,0Z"/><path class="cls-2" d="M473.39,455l-68.93.06c-1.68-5.41-4.42-10.74-4.83-16.24-.7-9.35,4.16-16.49,12.45-20.76,3.2-1.65,4.43-2.74,3.61-6.79-2-10.09,2.73-19.59,11.32-24.69a23.57,23.57,0,0,1,26.72,1.75c7.71,5.83,10.92,15.57,8.38,25.44-.15.58-.29,1.17-.55,2.21,9.14,2.69,14.05,9.59,17.48,17.88v10.29Zm-26.16-16a7.91,7.91,0,0,0,8,8,8.16,8.16,0,0,0,7.81-7.79,8.41,8.41,0,0,0-7.66-8A8.08,8.08,0,0,0,447.23,439.05Zm-.1-31.92a8.3,8.3,0,0,0-8.34-7.82,7.93,7.93,0,0,0,.19,15.84A8.36,8.36,0,0,0,447.13,407.13Zm-23.82,24a8,8,0,0,0-8,8.08A7.65,7.65,0,0,0,423,447a8.11,8.11,0,0,0,8.1-7.95A8.34,8.34,0,0,0,423.31,431.16Z"/><path class="cls-1" d="M479,58.74c-2.86,4.34-7,5.45-12,5.41-19.91-.17-39.83-.09-59.75-.1q0-24.07,0-48.15c20.08,0,40.17.07,60.25-.08,4.91,0,8.8,1.28,11.49,5.5ZM415.43,46.19l21-14h-21Zm47.32,1.32V33.79L443.54,46.63l.39.88Z"/><path class="cls-1" d="M311.64,454.93c-1.24.08-2.47.23-3.71.23H107.52c-1.23,0-2.47-.15-3.71-.24q0-118.91.08-237.81c0-6.69.06-13.39.09-20.08l15.61.11,48.22,0,15.56.07a22,22,0,0,1,.93,4.79c-.2,8.51-.45,17-.94,25.51-.22,3.6,1.15,4.54,4.54,4.41,6.37-.24,12.76-.32,19.1.07a12.08,12.08,0,0,1,6.82,2.86c6,5.37,11.67,11.13,17.46,16.74,2.84,3,5.82,5.89,8.48,9a7.69,7.69,0,0,0,7.67,2.94l48.27.07,15.76-.17c0,10.28.1,20.55.1,30.82Q311.62,374.6,311.64,454.93Zm-79.77-63.67c-2.18,15.39-.77,17.11,12.61,16.11.46,0,1.05.13,1.36-.1.68-.49,1.7-1.16,1.71-1.78.15-4.72.08-9.44.08-14.23Zm15.95,47.85c-.24-5.19-.47-10.32-.71-15.45L233.82,423c-.15,0-.37,0-.45,0-.67.7-1.84,1.4-1.87,2.13-.17,4.58-.08,9.16-.08,13.91Zm-.56-64V359.58H231.64v15.51Zm-47.45,48v15.86h15.88c0-4.81.08-9.28-.09-13.74a2.83,2.83,0,0,0-1.86-2C209.14,423,204.53,423.08,199.81,423.08Zm-.13-15.74c4.87,0,9.2.11,13.5-.09.87,0,2.35-1.25,2.39-2,.22-4.59.11-9.2.11-13.82h-16Zm64.08-16v15.58h15.43V391.34Zm15.6,47.72v-16c-4.81,0-9.42-.08-14,.1a2.82,2.82,0,0,0-1.86,2c-.18,4.59-.09,9.19-.09,13.88Zm-111.6-32h15.43V391.52H167.76ZM135.94,439h15.5V423.32h-15.5Zm47.35-15.53H168V439h15.34ZM231.63,343h15.7V327.59h-15.7Zm.05-47.32v15.53H247.4V295.64ZM136,406.92H151.3V391.35H136Zm79.41-79.31h-15.5v15.46h15.5Zm63.9,15.45V327.59H263.74v15.47Zm-79.61,31.79h15.59V359.62H199.68Zm79.64-15.47H263.71V374.9h15.61Zm0-63.67H263.93V311h15.39ZM135.91,342.87H151.4V327.61H135.91Zm47.3.15V327.69H167.85V343ZM136,295.66v15.41h15.33V295.66Zm79.37-31.78h-15.5v15.24h15.5Zm-79.29,95.56v15.49h15.32V359.44Zm47.19,15.47V359.55H168v15.36Zm.12-111H167.85v15.26h15.52Zm-31.92,0H136v15.3h15.5Zm31.74,47.24V295.84H167.88v15.33Zm16.58-.11H215.1V295.67H199.77Z"/><path class="cls-1" d="M359.41,454.84l-16.09.11q0-191.46,0-382.91h47.81V450.73c0,1.41,0,2.81,0,4.21l-18-.13c-4.35-6.72-8.7-13.45-13.77-21.27Zm15.7-260.6c-4.77,7.14-8.85,13.2-12.84,19.32-.52.8-1,2.27-.68,2.87,4.17,6.59,8.52,13.06,13.52,20.63ZM359.35,380.8c4.06-6.1,7.1-11.34,10.82-16,3.12-3.92,3.14-6.95.05-10.88-3.72-4.72-6.8-9.95-10.87-16Zm.15-138.57v42.54c4.83-7.27,9.06-13.51,13.09-19.87a3.78,3.78,0,0,0-.23-3.28C368.42,255.48,364.32,249.44,359.5,242.23ZM375.05,386c-4.75,7.13-8.92,13.26-12.92,19.49a3.69,3.69,0,0,0-.13,3.25c4,6.34,8.28,12.57,13.05,19.72ZM359.46,189c4.74-7.11,8.92-13.25,12.92-19.5a3.68,3.68,0,0,0,.16-3.26c-4.05-6.36-8.29-12.59-13.08-19.77Zm15.66-90.43c-4.42,6.6-7.92,12.24-11.86,17.55-2.14,2.88-2.08,5,.16,7.69a72.1,72.1,0,0,1,4.43,6.54q3.24,4.81,6.49,9.61l.78-.49ZM375,290.25c-4.73,7.09-8.82,13.1-12.75,19.22a3.77,3.77,0,0,0-.31,3.26c4,6.35,8.23,12.57,13.06,19.85ZM368.13,80h-8.47V92.93Z"/><path class="cls-1" d="M31.73,64c-7.17,0-14.34.13-21.5,0S.07,61,0,53.76c0-9.34-.06-18.69,0-28,0-6.6,3.07-9.6,9.74-9.83,1.55-.05,3.11,0,4.67,0l312.69-.05.39,31.94-.07.34q-.1,8-.22,15.93L48.05,64c-.12-2.57-.25-5.14-.37-7.73H31.73ZM51.35,31.93c.37.68.44,1,.66,1.18Q57.79,37,63.62,40.89c8.27,5.5,8.27,5.5,16.65-.1l12-8-.53-.84Zm137.83.14h-43c7.41,4.94,13.62,9.19,20,13.18.84.53,2.75.14,3.74-.49C176.09,40.86,182.11,36.77,189.18,32.07Zm54.22-.14-.33.8c2.56,1.72,5.1,3.47,7.69,5.14,4.17,2.69,8.4,7.46,12.55,7.4,4.38-.06,8.73-4.68,13-7.42,2.59-1.66,5.05-3.52,8.46-5.92ZM138.93,47.52l.34-.94c-5.93-4-11.84-7.94-17.81-11.84-.67-.44-1.94-.84-2.46-.51-6.32,4.05-12.56,8.25-18.82,12.4l.43.89ZM195,47.35h41.19c-6.74-4.49-12.48-8.44-18.38-12.14a4.76,4.76,0,0,0-4.12-.24C207.66,38.72,201.83,42.77,195,47.35ZM16.22,31.59V47.44H44.75C36.62,42,29.64,37.2,22.45,32.71,20.92,31.75,18.64,32,16.22,31.59ZM319,31.3c-11.37,2.26-18.35,10.77-27.12,16.11H319Z"/><path class="cls-1" d="M119.59,197.14,104,197V96.18h15.66v31.56H223.36v15.82H120.1v23.82h47.31V160h16c.11,2.4.22,4.68.35,7.26h47.7V152h16v15.28h48v-31.4h16V263.44l-15.76.17V184H247.61c0,2.09,0,3.91,0,5.74q-.07,36.89-.17,73.76a7.69,7.69,0,0,1-7.67-2.94c-2.66-3.15-5.64-6-8.48-9V184H183.37v13.18l-15.56-.07V184H119.59Z"/><path class="cls-1" d="M31.73,64V56.29h16c.12,2.59.25,5.16.37,7.73-.06,9.64-.18,19.28-.18,28.92,0,37,0,74.05-.08,111.08,0,3.25.63,5.1,3.81,6.83,14.79,8,16.44,28.74,3.38,39.34-1.2,1-2.42,1.92-3.64,2.88A29.59,29.59,0,0,1,28.49,253c-9.39-7.87-12-12.26-12.28-21.37H31.56A30.33,30.33,0,0,0,33,235.21c1.92,3.36,4.88,4.82,8.65,4a7.25,7.25,0,0,0,6-6.83c.36-3.87-1.42-6.61-5-8.06a16.48,16.48,0,0,0-3.62-.87c-4.34-.68-6.46-3.45-7.07-7.54a31.58,31.58,0,0,1-.1-4.67q0-70.8,0-141.6C31.9,67.74,31.79,65.88,31.73,64Z"/><path class="cls-2" d="M327.24,64q.11-8,.22-15.93h47.65V1.79l.06-1.7Q390.11,0,405.06,0a20.54,20.54,0,0,1,2.24.36V15.9q0,24.07,0,48.15c-.11,2.44-.23,4.88-.37,8H327.67C327.51,69.14,327.38,66.59,327.24,64Z"/><path class="cls-2" d="M71.32,279.39c.22,7.72.08,15.48.78,23.15.58,6.34-2.09,10.4-6.09,15.06-6.68,7.79-14.14,10.37-24.29,9.94-19-.81-19-.22-31.67-14.19a6.11,6.11,0,0,1-1.79-3.55c0-10.11.11-20.21.21-30.32Z"/><path class="cls-1" d="M375.17.09l-.06,1.7a10.09,10.09,0,0,0-.82,1.6c-7,23.88-22.62,38.6-46.76,44.38l-.39-31.94V.09Z"/><path class="cls-1" d="M71.32,279.39l-62.85.09,20-26.46a29.63,29.63,0,0,0,22.85,0Z"/><path class="cls-1" d="M78.89,454.68a19.4,19.4,0,0,1-3.17.52q-28.17,0-56.36,0a18.37,18.37,0,0,1-2.73-.41L47.68,425Z"/><path class="cls-2" d="M327.53,47.77c24.14-5.78,39.79-20.5,46.76-44.38a10.09,10.09,0,0,1,.82-1.6V48.11H327.46Z"/></g></g></svg>